<mxfile host="app.diagrams.net" modified="2023-06-10T04:01:59.542Z" agent="Mozilla/5.0 (Windows NT 10.0; Win64; x64) AppleWebKit/537.36 (KHTML, like Gecko) Chrome/114.0.0.0 Safari/537.36" version="21.3.8" etag="c9kdQdsrmd50sjQ3Qvc4" type="github">
  <diagram name="Trang-1" id="2hIUaYXdIOo80L8_jCq6">
    <mxGraphModel>
      <root>
        <mxCell id="0" />
        <mxCell id="1" parent="0" />
      </root>
    </mxGraphModel>
  </diagram>
</mxfile>
